<?xml version="1.0" encoding="utf-8"?>
<!-- Svg Vector Icons : http://www.onlinewebfonts.com/icon -->
<!DOCTYPE svg PUBLIC "-//W3C//DTD SVG 1.1//EN" "http://www.w3.org/Graphics/SVG/1.1/DTD/svg11.dtd">
<svg version="1.1" xmlns="http://www.w3.org/2000/svg" xmlns:xlink="http://www.w3.org/1999/xlink" x="0px" y="0px" viewBox="0 0 1000 1000" enable-background="new 0 0 1000 1000" xml:space="preserve">
<metadata> Svg Vector Icons : http://www.onlinewebfonts.com/icon </metadata>
<g><g><g><path d="M510,510.6l1.5-0.1v-0.1C511.6,510.4,510.9,510.5,510,510.6z"/><path d="M967.9,476.3L859.5,367.9c-14.2-14.3-33.2-22.1-53.3-22.1s-39.1,7.9-53.3,22.1l-51,51c-1-6.2-2.5-12.2-5.2-18.1l-6.7-14c-11-23.1-33.7-37.5-59.3-37.5c-10.5,0-21.2,2.6-30.7,7.5l-49,25.2L528,326.6c-4.7-9.8-10.9-18.5-18.1-26c56.9-12,99.9-64.1,99.9-126.3c0-71.1-56.1-128.9-125.1-128.9c-69,0-125.1,57.8-125.1,128.9c0,17.4,3.4,34.1,9.6,49.2c-7.1-0.7-14.3-0.4-21.3,1.3c-2.2-0.2-4.3-0.3-6.5-0.3H137.1c-10,0-19.9,1.6-29.4,4.7c-18.3,4.1-34,16.3-42.6,32.4c-1.5,2.5-2.8,5.1-4.1,7.9c-3.5,8.2-5.3,16-5.3,24v147.4c0,38.1,29.5,69,65.8,69h15.1c36.3,0,65.8-31,65.8-69v-62.1h42.2l-81.9,163.7c-8.2,16-9.7,34.4-4.3,51.6c0,0.2,0,0.4,0,0.6V675H85.8C44,675,10,709.9,10,752.7v19.6c0,42.9,34,77.8,75.8,77.8h167.4c41.9,0,75.8-34.9,75.8-77.8v-43.7l195.1,202.7c14.4,14.9,33.5,23.1,54,23.1c20.5,0,39.6-8.2,54-23.1l13.3-13.9c29-30.1,29-79.1,0-109.3L416,569.8l27.2-54.3c4.1,7.8,9.1,15,15.1,21.5c11.7,15.3,29.4,24.5,47.4,25.3c2,0.2,3.9,0.3,5.9,0.3l5-0.2c6.7-0.5,12.9-1.9,18.6-4.3l56.5-29l-11.9,12c-14.3,14.2-22.1,33.2-22.1,53.3c0,20.1,7.8,39.1,22.1,53.3L688.1,756c14.2,14.3,33.2,22.1,53.3,22.1c20.1,0,39.1-7.9,53.3-22.1l173.2-173.1c14.2-14.2,22.1-33.2,22.1-53.3C990,509.4,982.1,490.5,967.9,476.3z"/></g></g><g></g><g></g><g></g><g></g><g></g><g></g><g></g><g></g><g></g><g></g><g></g><g></g><g></g><g></g><g></g></g>
</svg>